PathFileType	4	(X/Y/Z)	D:\mayra\Descargas\0003~aa~Standing.trc
DataRate	CameraRate	NumFrames	NumMarkers	Units	OrigDataRate	OrigDataStartFrame	OrigNumFrames
250.00	250.00	10	22	mm	250.00	537	2178
Frame#	Time	r.should			l.should			c7			r.asis			l.asis			sacrum			r.bar1			l.bar1			r.knee1			l.knee1			r.bar2			r.mall			l.bar2			l.mall			r.met			r.heel			l.heel			l.met			r.mallm			l.mallm			r.kneem			l.kneem			
		X1	Y1	Z1	X2	Y2	Z2	X3	Y3	Z3	X4	Y4	Z4	X5	Y5	Z5	X6	Y6	Z6	X7	Y7	Z7	X8	Y8	Z8	X9	Y9	Z9	X10	Y10	Z10	X11	Y11	Z11	X12	Y12	Z12	X13	Y13	Z13	X14	Y14	Z14	X15	Y15	Z15	X16	Y16	Z16	X17	Y17	Z17	X18	Y18	Z18	X19	Y19	Z19	X20	Y20	Z20	X21	Y21	Z21	X22	Y22	Z22	

536	2.144000	999.116540	1330.307484	362.109870	1032.653809	1321.073771	72.698921	920.130372	1356.264472	225.722402	1133.432627	871.026397	361.928552	1082.137108	872.707486	59.601415	881.850302	938.654065	235.254079	1029.834270	834.738314	434.681892	1027.028799	794.155777	26.207421	1006.220102	467.732280	388.777196	1000.560880	447.212607	96.305810	1003.325224	405.263543	384.068578	970.669270	76.081492	364.178717	979.516864	403.286397	93.550257	974.535704	70.267335	110.897072	1115.915179	42.672336	345.038772	908.905208	33.336174	319.241077	913.552582	31.161431	158.238098	1117.160320	40.912479	129.389763	980.568647	75.228199	280.520558	983.808279	75.031638	188.431650	1032.709360	450.536728	249.734819	1008.603692	447.868049	230.261371	
537	2.148000	999.156237	1330.313444	362.094641	1032.654524	1321.060300	72.680913	920.147777	1356.268644	225.715339	1133.450031	871.031582	361.943811	1082.190871	872.715473	59.607837	881.859064	938.665688	235.251606	1029.856682	834.736109	434.701830	1027.069688	794.152200	26.227713	1006.222486	467.725217	388.787150	1000.592470	447.206587	96.322387	1003.330827	405.271709	384.063691	970.684528	76.081276	364.192069	979.534090	403.285593	93.558654	974.529564	70.264578	110.900328	1115.926147	42.677604	345.051676	908.904076	33.339299	319.245964	913.547158	31.173445	158.230066	1117.160916	40.920317	129.391879	980.571091	75.226776	280.521929	983.821452	75.039595	188.440055	1032.651544	450.498730	249.785304	1008.632183	447.867632	230.275422	
538	2.152000	999.189854	1330.314994	362.077266	1032.656074	1321.054697	72.667554	920.163512	1356.268406	225.711629	1133.451343	871.022463	361.964405	1082.241774	872.714639	59.626542	881.862700	938.661695	235.249102	1029.863596	834.742188	434.719205	1027.113914	794.148743	26.238225	1006.221294	467.719495	388.793111	1000.621438	447.204888	96.335478	1003.306508	405.259818	384.058297	970.691085	76.083124	364.202082	979.550540	403.296709	93.570679	974.535763	70.267841	110.902876	1115.926504	42.686671	345.052421	908.900499	33.346638	319.243461	913.544655	31.169906	158.228040	1117.163181	40.921342	129.391998	980.546176	75.221121	280.526102	983.823717	75.038590	188.437253	1032.666326	450.497746	249.804154	1008.646250	447.868735	230.280221	
539	2.156000	999.220014	1330.315232	362.064779	1032.648683	1321.045876	72.655305	920.177698	1356.256962	225.710168	1133.469701	871.027231	361.991704	1082.276106	872.708917	59.637740	881.876409	938.660383	235.248268	1029.851675	834.743381	434.735656	1027.155757	794.144213	26.252508	1006.225467	467.715412	388.796985	1000.647545	447.214603	96.350186	1003.310204	405.254245	384.067178	970.673919	76.091096	364.194602	979.562342	403.304994	93.575954	974.546969	70.271082	110.904843	1115.916371	42.683087	345.050335	908.904731	33.339929	319.235474	913.535357	31.178132	158.231437	1117.162704	40.919382	129.389435	980.539441	75.221889	280.518591	983.815849	75.042278	188.427284	1032.697916	450.503469	249.816775	1008.672357	447.875410	230.282456	
540	2.160000	999.250531	1330.320835	362.049043	1032.642484	1321.040154	72.634473	920.179367	1356.254220	225.699812	1133.488655	871.034384	361.998737	1082.302332	872.698247	59.651174	881.901383	938.665390	235.255152	1029.870510	834.750056	434.752464	1027.203560	794.142842	26.266633	1006.232142	467.714936	388.793111	1000.673294	447.216868	96.358515	1003.325343	405.265331	384.069830	970.675707	76.085128	364.196032	979.582071	403.305709	93.577906	974.548280	70.267454	110.899925	1115.914822	42.680681	345.051646	908.905506	33.343546	319.226265	913.528085	31.179642	158.228233	1117.157340	40.915940	129.397124	980.554700	75.220309	280.515969	983.810544	75.037956	188.426256	1032.721519	450.516164	249.816000	1008.698463	447.874874	230.291784	
541	2.164000	999.294102	1330.326557	362.034857	1032.639265	1321.030617	72.612889	920.195401	1356.256127	225.687325	1133.503795	871.037722	362.021953	1082.365155	872.691274	59.644096	881.921053	938.663483	235.248655	1029.883265	834.742904	434.761226	1027.243733	794.144750	26.279701	1006.245971	467.716634	388.798058	1000.698328	447.213471	96.357182	1003.335476	405.262262	384.070873	970.697165	76.080993	364.200652	979.628921	403.309137	93.567833	974.640846	70.211455	110.919289	1115.915179	42.681791	345.054150	908.912897	33.346456	319.229066	913.632751	31.534422	156.200334	1117.157221	40.912520	129.401192	980.563939	75.231135	280.514151	982.327163	74.916728	189.514160	1032.722473	450.505704	249.834806	1008.726120	447.875679	230.302155	
542	2.168000	999.337912	1330.332518	362.009257	1032.643318	1321.022868	72.586283	920.207977	1356.252551	225.678682	1133.515120	871.039689	362.034321	1082.464814	872.703075	59.619348	881.946266	938.652396	235.253438	1029.902935	834.739804	434.775829	1027.281761	794.142842	26.293352	1006.256580	467.714369	388.804257	1000.726938	447.216511	96.360385	1003.346682	405.256718	384.068578	970.704198	76.079831	364.206314	979.672372	403.309882	93.574673	974.766850	70.138618	110.940918	1115.926027	42.689882	345.047653	908.920884	33.354089	319.226205	913.779438	31.977985	153.668791	1117.164373	40.901810	129.397184	980.585277	75.230248	280.521214	980.476558	74.764989	190.873981	1032.731891	450.501323	249.844864	1008.755207	447.875738	230.308041	
543	2.172000	999.380350	1330.348015	361.987859	1032.638311	1321.013212	72.561555	920.216084	1356.258154	225.666538	1133.524179	871.044338	362.054288	1082.515836	872.703791	59.620917	881.965220	938.643813	235.261098	1029.943466	834.747612	434.788525	1027.319670	794.145584	26.308084	1006.274939	467.719793	388.808966	1000.770807	447.216153	96.371025	1003.368258	405.258030	384.066105	970.713854	76.085970	364.203155	979.697168	403.300822	93.583301	974.622846	70.234671	110.895745	1115.927935	42.696744	345.037550	908.927679	33.357710	319.224834	913.582742	31.407662	157.072067	1117.167473	40.911730	129.390895	980.589509	75.232074	280.521214	982.990503	74.985936	189.027607	1032.802582	450.535715	249.819607	1008.794546	447.884083	230.308384	
544	2.176000	999.435425	1330.356598	361.972153	1032.635689	1321.004272	72.535783	920.236051	1356.254339	225.644767	1133.570313	871.058702	362.085819	1082.528234	872.681975	59.649482	881.992638	938.639164	235.262573	1029.960632	834.752500	434.796870	1027.370572	794.140100	26.323877	1006.299496	467.718720	388.808489	1000.804663	447.213680	96.376657	1003.388524	405.262709	384.070605	970.713139	76.084211	364.193499	979.725957	403.299838	93.586966	974.587083	70.255943	110.893525	1115.926266	42.697310	345.020950	908.922791	33.353180	319.224864	913.530350	31.261474	157.917440	1117.167115	40.913738	129.385635	980.579257	75.223170	280.511677	983.623981	75.047433	188.567370	1032.835603	450.536370	249.821842	1008.829355	447.885215	230.322599	
545	2.180000	999.481201	1330.359936	361.949980	1032.635808	1320.996046	72.513044	920.257509	1356.253982	225.644484	1133.593321	871.056437	362.098068	1082.581282	872.674286	59.650790	882.022321	938.627541	235.266358	1029.962778	834.749877	434.803575	1027.420878	794.143498	26.329972	1006.315470	467.718422	388.813764	1000.831366	447.220474	96.389033	1003.405094	405.263633	384.078264	970.715523	76.077387	364.185065	979.761958	403.299719	93.597099	974.575162	70.262954	110.898033	1115.921974	42.695992	345.014751	908.921838	33.356331	319.214404	913.535237	31.218734	158.140704	1117.170572	40.918961	129.380688	980.587065	75.221114	280.507207	983.784437	75.056829	188.465476	1032.871008	450.538039	249.825656	1008.858681	447.886586	230.335370	
